<svg xmlns="http://www.w3.org/2000/svg" viewBox="135.6118740629685 79.039968 404.9175412293853 374.40000000000003" style="max-height: 500px" width="404.9175412293853" height="374.40000000000003">
 <title>gold eagle interest</title>
 <metadata id="metadata6122">image/svg+xml</metadata>
 <g>
  <title>Layer 1</title>
  <g id="layer1">
   <g id="g6100">
    <path id="path5097" d="m253.342743,205.259064c-7.0979,6.308014 -20.04364,18.631958 -37.325256,17.629242c-3.911865,-0.226898 -5.861298,-2.670135 -6.778839,-5.400574c-0.440918,1.91568 -2.954742,5.66568 -6.632751,4.833008c-6.845551,-1.549713 -14.01062,-5.265167 -21.625641,-11.016907c11.756012,28.963135 32.822998,36.529053 59.447571,31.322601c-11.722351,-2.469727 -22.331818,-6.042389 -30.526794,-12.008148c22.04422,0.791077 37.237274,-14.08075 43.441711,-25.359222z" stroke-width="1px" fill-rule="evenodd" fill="#f7ad41"/>
    <path id="path5099" d="m256.182465,233.600098c-10.267303,15.131592 -33.061584,26.779114 -53.069031,18.90744c13.002808,20.764496 37.681213,23.100677 47.938019,8.256165c-7.668976,5.362213 -17.305389,3.698547 -21.541229,-0.260376c17.288879,-6.348114 22.176239,-16.564606 26.672241,-26.903229z" stroke-width="1px" fill-rule="evenodd" fill="#f7ad41"/>
    <path id="path5101" d="m263.417908,259.55545c-4.516632,12.834259 -27.58963,29.70636 -45.405365,30.710876c22.083557,13.313202 34.377472,6.286011 43.870239,-6.561432c-5.555939,2.117432 -9.110931,3.158325 -12.717712,-0.284637c9.964539,-6.491241 14.067657,-16.360352 14.252838,-23.864807z" stroke-width="1px" fill-rule="evenodd" fill="#f7ad41"/>
    <path id="path5103" d="m271.011749,285.453918c-6.033966,12.244751 -18.337311,24.208313 -32.373016,24.971924c13.520966,6.171021 28.145386,5.474365 37.889679,-3.666779c-6.52948,1.711853 -11.433502,3.475067 -15.646118,1.404938c7.578278,-4.204712 11.327881,-16.116028 10.129456,-22.710083z" stroke-width="1px" fill-rule="evenodd" fill="#f7ad41"/>
    <path id="path5109" d="m335.533569,450.539886c-29.442719,-51.983154 -17.919006,-103.886688 -6.974121,-156.495544c-9.612823,-20.397125 -19.671417,-40.41626 -34.63089,-56.280212c-2.667053,18.697845 6.098816,41.632416 21.452484,64.709167c-10.596436,23.119415 -22.594513,44.747009 -29.632599,67.726227c-2.77774,9.069214 2.374329,6.375275 8.22348,1.818573c-3.399048,8.960785 -7.648438,16.809265 -17.40155,17.458954c-4.664581,-10.089966 4.595886,-26.191498 10.961945,-38.65033c7.113953,-17.007568 16.269623,-32.627838 24.748169,-48.708191c-21.773254,-26.262299 -32.235992,-52.510529 -31.405243,-78.744751l-10.064026,-7.41806c2.23288,24.888306 6.488495,50.011444 27.710449,77.104034c-6.157959,17.719849 -18.429535,30.714813 -34.342896,35.20578c11.59198,-9.125061 21.80545,-20.171875 26.48291,-32.718353c-23.700714,-29.820557 -26.777893,-59.490662 -30.096283,-89.162598c-14.846436,-17.033249 -48.338776,-24.271164 -68.651428,-20.985504c10.528992,11.008026 26.207977,18.969086 47.39151,21.906342c-37.038086,-0.804932 -71.491211,-5.890869 -90.249512,-36.967911c14.998505,2.549545 32.302582,6.824936 47.388275,4.193695c26.518494,2.332413 52.449219,10.40773 62.857056,19.329926c5.8349,5.001999 19.100006,14.998856 25.798706,16.141373c1.12381,-3.359253 -3.884186,-11.06662 -5.573883,-13.004837c-17.212067,-19.744049 -35.355286,-30.718918 -58.164734,-45.084091c-12.59494,-8.726105 -41.39859,-4.412735 -54.806122,-2.73764c-2.024841,0.25296 -4.630127,0.597229 -6.645203,1.073761c1.638672,1.706131 4.010956,3.079773 6.822388,4.265335c3.395508,1.43187 9.706482,3.62854 9.706482,3.62854c1.286194,-1.466568 2.111511,-2.074509 4.802277,-1.888245c2.260284,0.156418 3.34613,1.899246 4.431,3.880493c15.199524,5.285812 29.368195,8.452194 46.382599,11.510513c-22.536194,-0.372772 -60.799622,-2.322113 -82.32843,-17.669113c-10.981781,-7.828491 -11.196106,-20.727859 -13.726837,-31.361572c7.55127,12.087952 18.450653,18.319595 35.377716,15.630142c8.378265,-1.331192 17.770966,-0.717041 26.84317,0.923279c-14.399597,-12.508698 -18.506073,-24.308685 -20.875885,-37.168701c8.132843,13.465683 9.958435,26.884766 37.749878,37.247009c17.518799,6.532013 32.672882,17.527771 47.77887,27.863464c3.527954,-1.979858 6.628632,-7.445023 4.236694,-12.815384c-9.471344,-11.479813 -19.742645,-23.049866 -32.328003,-32.403336c-5.967255,-1.134155 -11.935059,-1.835587 -17.899109,-5.203644c2.766296,13.228882 18.023804,22.652527 29.344543,33.275421c-40.625916,-21.237015 -50.18454,-46.000031 -49.161194,-71.96402c8.123352,17.609924 14.46701,35.546158 41.953827,38.58255c21.854614,12.308319 33.501862,35.247238 51.824249,51.520355c-6.305237,-0.027588 -19.189667,1.558014 -11.568481,10.405045c21.269775,24.690964 36.159241,47.705887 43.062317,71.009232c-7.027863,-9.956451 -13.594757,-17.953949 -23.166138,-23.278809c11.247894,16.506775 30.355286,39.169861 39.51416,58.055939l0.547791,20.527496c-5.335724,33.497223 -17.59845,65.388092 -1.847198,107.452087l-1.85318,38.266113z" stroke-width="1px" fill-rule="evenodd" fill="#f7ad41"/>
    <path id="path5111" d="m316.19696,322.291077c-4.215912,21.168762 -14.689362,39.240234 -20.064911,59.805359c-3.663513,14.015656 -4.462158,38.430359 0.861633,39.159271c7.972992,1.095642 9.886932,-22.141998 13.173859,-35.379852c-2.3284,4.915802 -4.930206,12.772766 -8.368134,11.87384c-5.532593,-1.446625 1.347534,-26.991791 4.875336,-39.583252c2.705719,-9.657471 7.807129,-22.959961 9.522217,-35.875366z" stroke-width="1px" fill-rule="evenodd" fill="#f7ad41"/>
    <path id="path5113" d="m301.972351,188.319489c6.768951,-2.31015 11.279297,-5.157776 10.548462,-17.616699c-1.356415,-11.402588 -7.051025,-32.03241 -22.714447,-22.858566c-1.048645,-3.697723 0.716797,-9.207397 4.024719,-12.483978c8.762848,-8.679962 19.994049,-2.837234 28.914276,2.938416c7.228027,-3.328842 14.593811,-5.469864 23.426117,5.027679c9.647552,16.411057 21.858673,30.440109 42.553619,36.586182c-15.173065,-2.455765 -31.399719,-5.793076 -41.550873,-20.560287c-7.183319,-10.449799 -11.829559,-14.234665 -16.886719,-14.302094c1.169769,1.154694 2.062286,5.522736 2.925629,9.040726c-3.760468,-2.286026 -6.825867,-5.162766 -7.573334,-9.08699c-6.442291,-0.436203 -10.558685,-1.537323 -15.875732,-5.65918c0,0 11.174652,21.829041 8.215729,33.864578c-3.682495,14.978531 -7.248688,15.053864 -16.007446,15.110214z" stroke-width="1px" fill-rule="evenodd" fill="#f7ad41"/>
    <path id="path5115" d="m337.967285,160.384033c5.867188,9.266098 15.765259,18.045685 27.211548,21.530518c-13.564941,2.485336 -26.298737,-10.327499 -27.211548,-21.530518z" stroke-width="1px" fill-rule="evenodd" fill="#f7ad41"/>
    <path id="path5117" d="m326.229004,165.788803c10.627014,15.179993 23.550995,25.457901 41.554993,24.890198c-14.222992,17.1035 -25.927979,36.67131 -30.532013,63.187515c-7.340973,-19.639709 -15.279999,-38.713318 -27.359985,-53.865997c11.447998,-8.083221 15.938995,-19.686813 10.71701,-36.205856c6.807007,12.908249 7.080994,25.559845 0.333008,37.935745c6.863983,7.207703 11.367004,16.650299 13.834961,24.886902c3.907043,-10.380219 11.449005,-19.964203 17.279022,-25.707611c-14.139984,-13.287003 -23.485992,-25.800812 -25.826996,-35.120911l0,0.000015z" stroke-width="1px" fill-rule="evenodd" fill="#f7ad41"/>
    <path id="path5119" d="m336.045776,451.544464c29.442719,-51.983185 20.794373,-104.891266 9.849457,-157.500122c9.612823,-20.397125 19.671478,-40.41626 34.63089,-56.280212c2.667084,18.697845 -6.098816,41.632416 -21.452454,64.709167c10.596405,23.119415 22.594482,44.747009 29.632599,67.726227c2.77774,9.069214 -2.374359,6.375275 -8.223541,1.818573c3.399048,8.960785 7.648468,16.809265 17.40155,17.458954c4.664581,-10.089966 -4.595856,-26.191498 -10.961914,-38.65033c-7.113953,-17.007568 -16.269592,-32.627838 -24.748169,-48.708191c21.773285,-26.262299 32.236023,-52.510529 31.405243,-78.744751l10.064056,-7.41806c-2.23288,24.888306 -6.488525,50.011444 -27.71051,77.104034c6.15802,17.719849 18.429565,30.714813 34.342896,35.20578c-11.591919,-9.125061 -21.805328,-20.171875 -26.482849,-32.718353c23.700684,-29.820557 26.777863,-59.490662 30.096252,-89.162598c14.846375,-17.033249 48.338837,-24.271164 68.651428,-20.985504c-10.528961,11.008026 -26.207977,18.969086 -47.391571,21.906342c37.038177,-0.804932 71.491272,-5.890869 90.249542,-36.967911c-14.998444,2.549545 -32.302521,6.824936 -47.388214,4.193695c-26.518555,2.332413 -52.449249,10.40773 -62.857056,19.329926c-5.83493,5.001999 -19.100037,14.998856 -25.798706,16.141373c-1.12384,-3.359253 3.884186,-11.06662 5.573883,-13.004837c17.212036,-19.744049 35.355255,-30.718918 58.164734,-45.084091c12.59491,-8.726105 41.39859,-4.412735 54.806061,-2.73764c2.024872,0.25296 4.630157,0.597229 6.645233,1.073761c-1.638672,1.706131 -4.010956,3.079773 -6.822418,4.265335c-3.395447,1.43187 -9.706451,3.62854 -9.706451,3.62854c-1.286163,-1.466568 -2.111481,-2.074509 -4.802338,-1.888245c-2.260223,0.156418 -3.346039,1.899246 -4.430969,3.880493c-15.199493,5.285812 -29.368195,8.452194 -46.382538,11.510513c22.536163,-0.372772 60.799591,-2.322113 82.328369,-17.669113c10.981812,-7.828491 11.196106,-20.727859 13.726868,-31.361572c-7.55127,12.087952 -18.450623,18.319595 -35.377686,15.630142c-8.378265,-1.331192 -17.770905,-0.717041 -26.84314,0.923279c14.399506,-12.508698 18.506042,-24.308685 20.875793,-37.168701c-8.132813,13.465683 -9.958405,26.884766 -37.749817,37.247009c-17.518768,6.532013 -32.672913,17.527771 -47.7789,27.863464c-3.527924,-1.979858 -6.628632,-7.445023 -4.236725,-12.815384c9.471375,-11.479813 19.742676,-23.049866 32.328003,-32.403336c5.967255,-1.134155 11.93512,-1.835587 17.89917,-5.203644c-2.766357,13.228882 -18.023865,22.652527 -29.344543,33.275421c40.625854,-21.237015 50.184479,-46.000031 49.161194,-71.96402c-8.123413,17.609924 -14.467041,35.546158 -41.953918,38.58255c-21.854553,12.308319 -33.501831,35.247238 -51.824158,51.520355c6.305267,-0.027588 19.189636,1.558014 11.56842,10.405045c-21.269714,24.690964 -36.15921,47.705887 -43.062286,71.009232c7.027832,-9.956451 13.594757,-17.953949 23.166168,-23.278809c-11.247925,16.506775 -29.255585,38.730072 -38.414459,57.61615l2.306152,20.297577c5.335663,33.497253 11.981781,65.95282 -3.76944,108.016846l0.640808,39.375641z" stroke-width="1px" fill-rule="evenodd" fill="#f7ad41"/>
    <path id="path5121" d="m421.721527,205.999084c7.097839,6.308044 20.04364,18.631958 37.325195,17.629303c3.911865,-0.22702 5.861298,-2.670166 6.77887,-5.400635c0.440918,1.915649 2.954773,5.66568 6.632782,4.833069c6.845459,-1.549774 14.01062,-5.265259 21.625641,-11.016998c-11.756073,28.963165 -32.822998,36.529053 -59.447632,31.322632c11.722351,-2.469757 22.331909,-6.042358 30.526825,-12.008148c-22.04422,0.791077 -37.237244,-14.080811 -43.441681,-25.359222z" stroke-width="1px" fill-rule="evenodd" fill="#f7ad41"/>
    <path id="path5123" d="m418.881836,234.340088c10.267242,15.131592 33.061523,26.779114 53.069,18.90744c-13.002899,20.764526 -37.681183,23.100647 -47.93808,8.256195c7.669006,5.362244 17.305389,3.698547 21.54129,-0.260406c-17.288818,-6.348083 -22.17627,-16.564606 -26.672211,-26.903229z" stroke-width="1px" fill-rule="evenodd" fill="#f7ad41"/>
    <path id="path5125" d="m411.646301,260.295471c4.516663,12.834259 27.589722,29.70636 45.405457,30.710876c-22.083618,13.313171 -34.377533,6.286011 -43.87027,-6.561462c5.555908,2.117432 9.110962,3.158356 12.717682,-0.284607c-9.964539,-6.491241 -14.067627,-16.360352 -14.252869,-23.864807z" stroke-width="1px" fill-rule="evenodd" fill="#f7ad41"/>
    <path id="path5127" d="m404.052521,286.193909c6.033966,12.244751 18.337311,24.208374 32.372925,24.971954c-13.520905,6.171021 -28.145355,5.474335 -37.889618,-3.666779c6.52948,1.711853 11.433533,3.475067 15.646149,1.404907c-7.578278,-4.204681 -11.327881,-16.116028 -10.129456,-22.710083z" stroke-width="1px" fill-rule="evenodd" fill="#f7ad41"/>
    <path id="path5129" d="m358.86731,323.031097c4.215881,21.168732 14.689331,39.240204 20.06488,59.805359c3.663513,14.015656 4.462219,38.430389 -0.861633,39.159271c-7.972992,1.095642 -9.886932,-22.142059 -13.173828,-35.379883c2.328369,4.915771 4.930176,12.772797 8.368103,11.873871c5.532593,-1.446625 -1.347534,-26.991821 -4.875275,-39.583282c-2.70575,-9.65744 -7.807159,-22.95993 -9.522247,-35.875336z" stroke-width="1px" fill-rule="evenodd" fill="#f7ad41"/>
   </g>
  </g>
 </g>
</svg>